# xmcd CD database file
#
# Track frame offsets:
#	150
#	472
#	27340
#	34434
#	60181
#	76210
#	76615
#	101900
#	105328
#	128170
#	128775
#	145800
#	172051
#	202235
#	202838
#	227617
#
# Disc length: 3367 seconds
#
# Revision: 0
# Processed by: cddbd v1.5PL3 Copyright (c) Steve Scherf et al.
# Submitted via: CDex 1.50
#
DISCID=c80d2510
DTITLE=DJ SHARPNEL - XRATED クロスレートっ！
DYEAR=2002
DGENRE=Techno
TTITLE0=XRATED
TTITLE1=PANTS
TTITLE2=XRATED ちぇる・Ｃ
TTITLE3=DELUSION WONDERLAND
TTITLE4=SATURDAY MORNING
TTITLE5=XRATED 侍
TTITLE6=SAMURAI HARDBEAT
TTITLE7=SELECT YOUR BATTLE SHIP
TTITLE8=SPRIT OF REBEL ARMY
TTITLE9=XRATED ﾜｯｼｮｲ
TTITLE10=OLD MEMORIES
TTITLE11=LOOP SKATERS
TTITLE12=THEME OF MEGA RAVE
TTITLE13=XRATED rarara
TTITLE14=DATA DRAIN
TTITLE15=FOR YOU
EXTD=YEAR: 2002
EXTT0=
EXTT1=
EXTT2=
EXTT3=
EXTT4=
EXTT5=
EXTT6=
EXTT7=
EXTT8=
EXTT9=
EXTT10=
EXTT11=
EXTT12=
EXTT13=
EXTT14=
EXTT15=
PLAYORDER=
